<?xml version="1.0" encoding="utf-8"?>
<!-- Generator: Adobe Illustrator 14.0.0, SVG Export Plug-In . SVG Version: 6.00 Build 43363)  -->
<!DOCTYPE svg PUBLIC "-//W3C//DTD SVG 1.1//EN" "http://www.w3.org/Graphics/SVG/1.1/DTD/svg11.dtd">
<svg version="1.1" xmlns="http://www.w3.org/2000/svg" xmlns:xlink="http://www.w3.org/1999/xlink" x="0px" y="0px" width="1000px"
	 height="1000px" viewBox="0 0 1000 1000" enable-background="new 0 0 1000 1000" xml:space="preserve">
<g id="trail-path" display="none">
	<path fill="#FFFFFF" stroke="#000000" d="M334.988,150.313c0,0,143.168,163.445,141.964,216.458c0,0,28.548-125.271,73.048-69.271
		s-74,70-74,70s113.5,21.5,65,77s-65.5-78-65.5-78S458,476,417.5,433s58.5-66,58.5-66s-92.5,3.5-72-39s70.5,37.5,70.5,37.5
		C472,313,332,153.5,332,153.5"/>
</g>
<g id="camera-path" display="none">
	<path fill="#FFFFFF" stroke="#000000" d="M334.988,150.313c0,0,143.168,163.445,141.964,216.458c0,0,28.548-125.271,73.048-69.271
		s-74,70-74,70s113.5,21.5,65,77s-65.5-78-65.5-78S458,476,417.5,433s58.5-66,58.5-66s-92.5,3.5-72-39s70.5,37.5,70.5,37.5
		C472,313,332,153.5,332,153.5"/>
</g>
<g id="points">
	<circle fill="#8A8A89" cx="475.625" cy="366.375" r="3.625"/>
	<circle fill="#8A8A89" cx="475.625" cy="366.375" r="3.625"/>
	<circle fill="#8A8A89" cx="475.625" cy="366.375" r="3.625"/>
	<circle fill="#8A8A89" cx="475.625" cy="366.375" r="3.625"/>
	<circle fill="#8A8A89" cx="475.625" cy="366.375" r="3.625"/>
</g>
</svg>
