<?xml version="1.0" encoding="utf-8"?>
<!-- Generator: Adobe Illustrator 14.0.0, SVG Export Plug-In . SVG Version: 6.00 Build 43363)  -->
<!DOCTYPE svg PUBLIC "-//W3C//DTD SVG 1.1//EN" "http://www.w3.org/Graphics/SVG/1.1/DTD/svg11.dtd">
<svg version="1.1" id="layer1" xmlns="http://www.w3.org/2000/svg" xmlns:xlink="http://www.w3.org/1999/xlink" x="0px" y="0px"
	 width="1000px" height="1000px" viewBox="0 0 1000 1000" enable-background="new 0 0 1000 1000" xml:space="preserve">
<g id="camera-path" display="none">
	<g display="inline">
		<path fill="none" stroke="#000000" stroke-miterlimit="1" d="M30.262,3.381l487.25,418.191c0,0,100.939-483.425,321.648-290.988
			C1059.863,323.023,517.338,421.27,517.338,421.27s462.074-85.198,468.596,127.897c6.522,213.097-468.422-127.897-468.422-127.897
			s316.211,310.552,130.295,389.919C461.889,890.556,517.99,421.445,517.99,421.445S229.224,813.362,121.588,642.669
			c-107.636-170.694,395.75-220.573,395.75-220.573L17.215,25.125"/>
	</g>
	<g display="inline">
		<path fill="none" stroke="#000000" stroke-miterlimit="1" d="M30.262,3.381l487.25,418.191c0,0,100.939-483.425,321.648-290.988
			C1059.863,323.023,517.338,421.27,517.338,421.27s462.074-85.198,468.596,127.897c6.522,213.097-468.422-127.897-468.422-127.897
			s316.211,310.552,130.295,389.919C461.889,890.556,517.99,421.445,517.99,421.445S229.224,813.362,121.588,642.669
			c-107.636-170.694,395.75-220.573,395.75-220.573L17.215,25.125"/>
	</g>
</g>
<g id="trail-path">
	<path fill="none" stroke="#000000" stroke-miterlimit="1" d="M30.096,3.381l487.25,418.191c0,0,100.939-483.425,321.648-290.988
		C1059.697,323.023,517.172,421.27,517.172,421.27s462.074-85.198,468.596,127.897C992.29,762.264,517.346,421.27,517.346,421.27
		s316.211,310.552,130.295,389.919c-185.918,79.367-129.816-389.743-129.816-389.743S229.058,813.362,121.422,642.669
		c-107.636-170.694,395.75-220.573,395.75-220.573L17.049,25.125"/>
</g>
<g id="points">
	<circle fill="#8A8A89" cx="518.334" cy="421.833" r="3.625"/>
	<circle fill="#8A8A89" cx="518.334" cy="421.833" r="3.625"/>
	<circle fill="#8A8A89" cx="518.334" cy="421.833" r="3.625"/>
	<circle fill="#8A8A89" cx="518.334" cy="421.833" r="3.625"/>
	<circle fill="#8A8A89" cx="518.334" cy="421.833" r="3.625"/>
	<circle fill="#8A8A89" cx="32" cy="5" r="3.625"/>
	<circle fill="#8A8A89" cx="17.049" cy="25.667" r="3.625"/>
</g>
</svg>
