<svg xmlns="http://www.w3.org/2000/svg" viewBox="0 0 241.1 43.24">
  <defs>
    <style>
      .cls-1 {
        fill: #fff;
      }

      .cls-2 {
        fill: #a6a6a6;
      }

      .cls-3 {
        fill: #737373;
      }

      .cls-4 {
        fill: #1e3363;
      }

      .cls-5 {
        fill: #d8b17d;
      }
    </style>
  </defs>
  <title>ncsoft-logo</title>
  <g id="Layer_2" data-name="Layer 2">
    <g id="Layer_1-2" data-name="Layer 1">
      <g>
        <g>
          <path class="cls-1" d="M32.73,29.23V13.65a2.84,2.84,0,0,1,2.77-2.84H58.31a.58.58,0,0,1,.58.58v3.18a.56.56,0,0,1-.56.56H42.27a2.34,2.34,0,0,0-1.53.6,2.21,2.21,0,0,0-.6,1.62v8.24A1.92,1.92,0,0,0,42,27.74H58.33a.51.51,0,0,1,.56.56v3.16a.63.63,0,0,1-.54.59H35.48A2.81,2.81,0,0,1,32.73,29.23Z"/>
          <path class="cls-1" d="M25.9,10.81a2.44,2.44,0,0,1,2.43,2.45h0v18.8H20.91V16.65a1.4,1.4,0,0,0-1.38-1.53H7.62V32.06H0V10.81Z"/>
          <path class="cls-1" d="M82.16,26.37V24.75A1.36,1.36,0,0,0,80.8,23.4h-15A2.89,2.89,0,0,1,62.9,20.5V13.71a2.9,2.9,0,0,1,2.89-2.9H88.46a.57.57,0,0,1,.56.58v3.14a.56.56,0,0,1-.56.57H71.15a1.36,1.36,0,0,0-1.35,1.37V17.6a1.43,1.43,0,0,0,1.33,1.49l15.15,0a2.78,2.78,0,0,1,2.86,2.77v7.33a2.91,2.91,0,0,1-2.91,2.89H63.53a.61.61,0,0,1-.57-.68V28.31a.57.57,0,0,1,.57-.58H80.8A1.36,1.36,0,0,0,82.16,26.37Z"/>
          <path class="cls-1" d="M118.2,10.81H96a2.8,2.8,0,0,0-2.77,2.79V29.27A2.79,2.79,0,0,0,96,32.06H118.2A2.79,2.79,0,0,0,121,29.27V13.6A2.8,2.8,0,0,0,118.2,10.81Zm-4.49,15.27a1.5,1.5,0,0,1-1.47,1.67H102.13a1.52,1.52,0,0,1-1.51-1.52V16.64a1.52,1.52,0,0,1,1.51-1.53h10.13a1.39,1.39,0,0,1,1.45,1.37Z"/>
          <path class="cls-1" d="M125.1,13.64a2.9,2.9,0,0,1,2.84-2.83H152a.53.53,0,0,1,.51.52v3.24a.54.54,0,0,1-.55.55H134.5a2.31,2.31,0,0,0-1.55.59,2.14,2.14,0,0,0-.59,1.56v2.41h18.28a.52.52,0,0,1,.52.53v3.25a.55.55,0,0,1-.56.57H132.36v8H125.1Z"/>
          <path class="cls-1" d="M155.51,15.09a.57.57,0,0,1-.58-.57V11.38a.57.57,0,0,1,.58-.57H182.9a.58.58,0,0,1,.58.57v3.14a.59.59,0,0,1-.58.57h-8a2.13,2.13,0,0,0-2.12,2.13V32.06h-7.26V17.23a2.14,2.14,0,0,0-2.12-2.14Z"/>
        </g>
        <g>
          <polygon class="cls-2" points="212.95 21.43 212.95 14.98 217.81 18.2 212.95 21.43"/>
          <polygon class="cls-3" points="222.9 29.53 216.9 25.55 222.9 21.57 222.9 29.53"/>
          <polygon class="cls-4" points="236.02 13.64 228.89 18.36 208.33 4.72 215.44 0 236.02 13.64"/>
          <polygon class="cls-2" points="236.02 20.83 228.89 25.55 228.89 18.36 236.02 13.64 236.02 20.83"/>
          <polygon class="cls-1" points="222.9 29.53 228.89 25.55 228.89 18.36 208.33 4.72 208.33 24.49 212.95 21.43 212.95 14.98 222.9 21.57 222.9 29.53"/>
          <polygon class="cls-3" points="241.1 31.17 222.9 43.24 222.9 36.27 241.1 24.2 241.1 31.17"/>
          <polygon class="cls-1" points="222.9 36.27 222.9 43.24 206.73 32.54 206.73 25.55 222.9 36.27"/>
          <polygon class="cls-5" points="241.1 24.2 236.02 20.83 222.9 29.53 216.9 25.55 222.9 21.57 217.81 18.2 206.73 25.55 222.9 36.27 241.1 24.2"/>
        </g>
        <path class="cls-1" d="M203,18.1a7.61,7.61,0,1,1-7.54-7.4A7.46,7.46,0,0,1,203,18.1Zm-13.32,0A5.76,5.76,0,0,0,195.41,24a5.67,5.67,0,0,0,5.64-5.87,5.71,5.71,0,1,0-11.42,0Zm4.56,3.84h-1.72V14.53a20.37,20.37,0,0,1,2.85-.22,3.89,3.89,0,0,1,2.53.59,1.84,1.84,0,0,1,.76,1.58,1.9,1.9,0,0,1-1.53,1.76v.09c.72.22,1.08.81,1.31,1.8a6.27,6.27,0,0,0,.54,1.81h-1.81a5.85,5.85,0,0,1-.58-1.81C196.4,19.37,196,19,195,19h-.81Zm0-4.16h.82c.94,0,1.71-.31,1.71-1.08s-.49-1.13-1.58-1.13a4.46,4.46,0,0,0-1,.09Z"/>
      </g>
    </g>
  </g>
</svg>
